<?xml version="1.0" encoding="UTF-8"?>
<svg version="1.1" xmlns="http://www.w3.org/2000/svg" width="1148" height="944">
<path d="M0 0 C1.32909675 -0.00135201 1.32909675 -0.00135201 2.68504393 -0.00273132 C101.97998242 -0.05182542 179.13329022 27.33567576 286.09257516 124.3055885 C295.18407742 133.44191112 304.09060259 142.75232322 312.9375 152.125 C313.61162524 152.83820121 314.28575048 153.55140242 314.98030376 154.28621578 C334.57772642 175.03799053 353.47629773 196.31733303 371.76635543 218.22890013 C373.45493882 220.24598066 375.15168618 222.25588218 376.85123134 224.26373148 C421.03056658 276.5120596 421.03056658 276.5120596 418.80991173 307.05322647 C418.55450445 309.92237192 418.2602959 312.78148142 417.92669249 315.64260674 C416.61638022 327.04753539 416.88678823 338.41501693 417.04119212 349.87548892 C417.1341198 356.924639 417.12994456 363.97284263 417.11710714 371.02247682 C417.11197538 373.96436635 417.10975885 376.90625551 417.10748356 379.84814842 C417.10572016 382.10147433 417.10356601 384.35479966 417.10139394 386.60812521 C417.09517899 393.59476058 417.09476217 400.5813976 417.09374207 407.56803526 C417.09157871 421.36323105 417.08499429 435.15842077 417.07543945 448.95361328 C417.06619366 462.31689423 417.05914839 475.68017351 417.05493164 489.04345703 C417.05466892 489.8737045 417.05440619 490.70395198 417.05413551 491.55935846 C417.05283003 495.72641736 417.05156643 499.89347627 417.05032361 504.06053519 C417.04003603 538.37369449 417.0224941 572.68684658 417 607 C457.19874401 606.68683914 497.38760741 606.29911566 537.5625 604.80859375 C538.30109882 604.78127182 539.03969765 604.7539499 539.80067825 604.72580004 C549.38787499 604.36996264 558.97427251 603.99482108 568.56048584 603.61352539 C579.85306655 603.16484249 591.14624305 602.73135765 602.4396677 602.30449444 C605.93992549 602.17182609 609.44005485 602.03680628 612.93997192 601.89541435 C630.6367849 601.18194021 648.28853628 600.85126684 666 601 C662.20457639 605.53501723 658.28521679 609.85531236 654.08415222 614.01591492 C653.52028457 614.5785203 652.95641691 615.14112568 652.37546235 615.72077972 C650.50553162 617.58537841 648.6320383 619.44635458 646.75854492 621.30737305 C645.40930698 622.65141221 644.06031442 623.99569776 642.71154785 625.34020996 C639.81714259 628.22470896 636.92128087 631.10773488 634.02434349 633.98969078 C629.44550503 638.54540303 624.87160182 643.10604835 620.29866028 647.66767883 C607.29820827 660.6347439 594.29355287 673.59757283 581.27856445 686.55004883 C574.08270039 693.71143294 566.89217078 700.8781278 559.70758134 708.05082351 C555.16104383 712.589251 550.60800252 717.12101953 546.05013406 721.64806592 C543.22208721 724.46014332 540.40032233 727.27845767 537.58034515 730.09862518 C536.26916154 731.40738078 534.95538844 732.71354784 533.63888741 734.01695442 C531.84592475 735.79281913 530.06237999 737.57763412 528.28092957 739.36503601 C527.75487521 739.88166972 527.22882085 740.39830344 526.68682545 740.93059272 C524.10936873 743.53708318 522.61800898 745.36817737 522 749 C520.67532254 749.6837045 519.34136367 750.34964186 518 751 C517.31731862 752.32520503 516.6492959 753.65812182 516 755 C515.01 755.33 514.02 755.66 513 756 C512.30389992 757.31820594 511.6403415 758.65382579 511 760 C509.47875977 761.65649414 509.47875977 761.65649414 507.69140625 763.28515625 C507.03205078 763.89294922 506.37269531 764.50074219 505.69335938 765.12695312 C504.99017578 765.76568359 504.28699219 766.40441406 503.5625 767.0625 C502.10406801 768.40603314 500.64704286 769.75109499 499.19140625 771.09765625 C498.4761377 771.75910645 497.76086914 772.42055664 497.02392578 773.10205078 C494.28232746 775.67300197 491.63907666 778.32380553 489 781 C485.46726691 784.57485211 481.84944979 787.93206429 478.02734375 791.19140625 C474.76430517 794.10236359 471.73699559 797.24308561 468.6875 800.375 C466.64091738 802.37398767 464.58862218 804.22626008 462.41674805 806.07885742 C457.5947711 810.28390044 453.12647172 814.80149384 448.64453125 819.36328125 C446.87072988 821.15458129 445.09663268 822.94558843 443.32226562 824.73632812 C440.5540662 827.5355949 437.78827833 830.33712512 435.02758789 833.14379883 C432.34411446 835.86952421 429.65134748 838.58577911 426.95703125 841.30078125 C426.13298294 842.14345047 425.30893463 842.98611969 424.45991516 843.85432434 C423.68528427 844.63240952 422.91065338 845.41049469 422.11254883 846.2121582 C421.43718582 846.89719925 420.76182281 847.5822403 420.06599426 848.28804016 C417.81596106 850.15250152 415.75273707 851.06326976 413 852 C413 851.34 413 850.68 413 850 C330.17 850 247.34 850 162 850 C162 807.76 162 765.52 162 722 C161.01 721.67 160.02 721.34 159 721 C159.66 720.67 160.32 720.34 161 720 C161.33 719.01 161.66 718.02 162 717 C161.01 716.67 160.02 716.34 159 716 C159.66 715.01 160.32 714.02 161 713 C160.67 712.34 160.34 711.68 160 711 C157.88153715 710.31270746 157.88153715 710.31270746 155.4375 709.875 C154.61121094 709.70742188 153.78492188 709.53984375 152.93359375 709.3671875 C152.29550781 709.24601563 151.65742187 709.12484375 151 709 C151.33 709.66 151.66 710.32 152 711 C151.34 711.99 150.68 712.98 150 714 C149.566875 713.54625 149.13375 713.0925 148.6875 712.625 C145.80456102 709.80388704 145.80456102 709.80388704 142 709 C142.66 707.35 143.32 705.7 144 704 C143.01 703.67 142.02 703.34 141 703 C141.33 702.01 141.66 701.02 142 700 C145 699 145 699 149 699 C149.66 699.33 150.32 699.66 151 700 C151.625 702.0625 151.625 702.0625 152 704 C152.99 703.34 153.98 702.68 155 702 C154.34 702 153.68 702 153 702 C153.33 701.01 153.66 700.02 154 699 C156.64 699 159.28 699 162 699 C162 575.58 162 452.16 162 325 C55.08 325 -51.84 325 -162 325 C-162 417.73 -162 510.46 -162 606 C-77.69733076 605.50506055 -77.69733076 605.50506055 6.50335693 603.0770874 C15.5756185 602.68703115 24.6492452 602.32870654 33.72276306 601.96925735 C35.86460663 601.8842737 38.00642294 601.79859978 40.14820862 601.71216965 C55.77549344 601.0846329 71.35873843 600.73388174 87 601 C83.20426563 605.53360453 79.28580256 609.85705 75.09088135 614.02264404 C74.52771926 614.58595499 73.96455717 615.14926594 73.38432956 615.72964692 C71.51672359 617.5965643 69.64557972 619.45989316 67.77441406 621.32324219 C66.42681462 622.66892046 65.07944415 624.01482806 63.73228455 625.36094666 C60.84125822 628.2488222 57.94868823 631.13513931 55.05490875 634.02025604 C50.48085328 638.58075652 45.91064374 643.14509809 41.34100342 647.71002197 C31.64696243 657.39298134 21.94869131 667.07169885 12.25 676.75 C1.76511695 687.21286283 -8.71903572 697.67645133 -19.19833016 708.144912 C-23.74327771 712.68487141 -28.29065376 717.2223801 -32.83989 721.75804186 C-35.6636697 724.57437782 -38.48539011 727.39277001 -41.30654716 730.21173286 C-42.6174508 731.52076009 -43.92922076 732.82892039 -45.24190712 734.1361599 C-47.02984803 735.9169132 -48.81470426 737.70070199 -50.59881592 739.48529053 C-51.12195743 740.00483708 -51.64509895 740.52438364 -52.18409324 741.05967402 C-54.40544343 743.28741765 -56.24664076 745.36996114 -58 748 C-58.66 748 -59.32 748 -60 748 C-60.4021875 748.8971875 -60.4021875 748.8971875 -60.8125 749.8125 C-61.99917406 751.99847854 -63.09599113 753.41332594 -65 755 C-65.66 755 -66.32 755 -67 755 C-67.26681894 755.59735899 -67.53363789 756.19471798 -67.80854225 756.81017876 C-69.02617211 759.04810262 -70.18362905 760.33963552 -72.06332397 762.03713989 C-72.6856875 762.60744368 -73.30805103 763.17774746 -73.94927406 763.76533318 C-74.62649702 764.3778953 -75.30371998 764.99045742 -76.00146484 765.62158203 C-84.43776189 773.3926992 -92.52942887 781.46575225 -100.58317947 789.63027573 C-103.89532939 792.98536564 -107.21759021 796.33037429 -110.53908348 799.6762104 C-116.6861341 805.86865043 -122.82871217 812.06540329 -128.95556641 818.27783203 C-133.25557546 822.63712598 -137.56761138 826.98419553 -141.88792038 831.32336807 C-143.52313388 832.97031468 -145.15380518 834.62178427 -146.77977371 836.27785873 C-149.04053776 838.57951309 -151.31629645 840.86526612 -153.59619141 843.14794922 C-154.59211304 844.17319199 -154.59211304 844.17319199 -155.6081543 845.21914673 C-156.23275543 845.8383197 -156.85735657 846.45749268 -157.50088501 847.09542847 C-158.03502329 847.63547453 -158.56916157 848.17552059 -159.11948586 848.73193169 C-164.16474819 852.13405303 -171.36032297 851.12397243 -177.2124939 851.08229065 C-178.23850854 851.07906152 -179.26452317 851.07583239 -180.32162917 851.07250541 C-183.75791459 851.06044626 -187.19411951 851.04107 -190.63037109 851.02172852 C-193.0942772 851.01158404 -195.5581852 851.00189055 -198.02209473 850.99261475 C-203.32586904 850.9716328 -208.62961488 850.9475142 -213.93336105 850.92053413 C-221.60164132 850.88153116 -229.26993802 850.84819802 -236.9382505 850.81623887 C-249.38023995 850.76423099 -261.82220424 850.70765176 -274.26416016 850.64819336 C-286.34878562 850.59045239 -298.43341787 850.53487882 -310.51806641 850.48217773 C-311.27083418 850.47889223 -312.02360195 850.47560673 -312.79918087 850.47222167 C-318.68651189 850.44654296 -324.57384346 850.42098976 -330.4611752 850.39547622 C-359.30748359 850.27043474 -388.15373096 850.13444769 -417 850 C-417 807.76 -417 765.52 -417 722 C-417.99 721.67 -418.98 721.34 -420 721 C-419.34 720.67 -418.68 720.34 -418 720 C-417.67 719.01 -417.34 718.02 -417 717 C-417.99 716.67 -418.98 716.34 -420 716 C-419.34 715.01 -418.68 714.02 -418 713 C-418.33 712.34 -418.66 711.68 -419 711 C-421.11846285 710.31270746 -421.11846285 710.31270746 -423.5625 709.875 C-424.38878906 709.70742188 -425.21507812 709.53984375 -426.06640625 709.3671875 C-426.70449219 709.24601563 -427.34257812 709.12484375 -428 709 C-427.67 709.66 -427.34 710.32 -427 711 C-427.66 711.99 -428.32 712.98 -429 714 C-429.6496875 713.319375 -429.6496875 713.319375 -430.3125 712.625 C-433.19543898 709.80388704 -433.19543898 709.80388704 -437 709 C-436.01 706.525 -436.01 706.525 -435 704 C-435.99 703.67 -436.98 703.34 -438 703 C-437.67 702.01 -437.34 701.02 -437 700 C-434 699 -434 699 -430 699 C-429.34 699.33 -428.68 699.66 -428 700 C-427.375 702.0625 -427.375 702.0625 -427 704 C-426.01 703.34 -425.02 702.68 -424 702 C-424.66 702 -425.32 702 -426 702 C-425.67 701.01 -425.34 700.02 -425 699 C-422.36 699 -419.72 699 -417 699 C-417.00037972 698.22609448 -417.00075944 697.45218897 -417.00115067 696.65483177 C-417.02363028 650.5741678 -417.04073744 604.49350444 -417.05106533 558.41283607 C-417.05231573 552.85416284 -417.05361008 547.29548962 -417.05493164 541.73681641 C-417.05519395 540.63039276 -417.05545626 539.52396912 -417.05572652 538.38401748 C-417.06005324 520.57394525 -417.06792393 502.76387632 -417.0771528 484.95380603 C-417.08657337 466.61800289 -417.0920732 448.28220145 -417.09408849 429.94639599 C-417.09520468 420.68026345 -417.09691487 411.41413493 -417.10357834 402.14800446 C-417.10571704 399.14512855 -417.10747276 396.14225257 -417.10920632 393.1393764 C-417.11154721 389.23518672 -417.1157232 385.33100478 -417.1210593 381.42681813 C-417.1308942 372.18699216 -417.1091233 362.94919917 -417.01359558 353.70982361 C-416.98114039 350.2733531 -416.95130405 346.83686909 -416.92323303 343.40036011 C-416.91601243 342.57847674 -416.90879183 341.75659336 -416.90135242 340.90980443 C-416.82785624 331.01157623 -417.17488807 321.34742711 -418.26609802 311.49636841 C-421.39110118 279.99409173 -405.70934511 259.3659759 -386.65257263 235.98440552 C-382.86077958 231.37997265 -379.01579013 226.8209497 -375.16216001 222.26825601 C-373.45499227 220.24614358 -371.75648673 218.2170774 -370.06064916 216.18545675 C-351.70043247 194.19679367 -332.61392302 172.94197553 -312.9375 152.125 C-312.26500119 151.41253396 -311.59250238 150.70006792 -310.89962482 149.966012 C-243.91314317 79.07238763 -174.20308199 18.7132462 0 0 Z M-423 702 C-423.33 703.98 -423.66 705.96 -424 708 C-423.01 708.33 -422.02 708.66 -421 709 C-421 707.02 -421 705.04 -421 703 C-421.66 702.67 -422.32 702.34 -423 702 Z M156 702 C155.67 703.98 155.34 705.96 155 708 C155.99 708.33 156.98 708.66 158 709 C158 707.02 158 705.04 158 703 C157.34 702.67 156.68 702.34 156 702 Z M-430 704 C-430.99 705.485 -430.99 705.485 -432 707 C-431.01 707.495 -431.01 707.495 -430 708 C-429.67 706.68 -429.34 705.36 -429 704 C-429.33 704 -429.66 704 -430 704 Z M149 704 C148.01 705.485 148.01 705.485 147 707 C147.99 707.495 147.99 707.495 149 708 C149.33 706.68 149.66 705.36 150 704 C149.67 704 149.34 704 149 704 Z " fill="#C32828" transform="translate(458,30)"/>
<path d="M0 0 C30.03 0 60.06 0 91 0 C91 0.33 91 0.66 91 1 C77.48962745 1.97933725 63.96487894 2.46072675 50.42871094 2.92993164 C46.63982268 3.06198339 42.85117025 3.19974157 39.0625 3.33789062 C26.03616673 3.80135762 13.03482285 4.14656847 0 4 C0 2.68 0 1.36 0 0 Z " fill="#E1D5D5" transform="translate(296,636)"/>
<path d="M0 0 C0.66 0.33 1.32 0.66 2 1 C3.67654729 0.72057545 5.34608154 0.39171753 7 0 C7.33 1.65 7.66 3.3 8 5 C8.99 4.34 9.98 3.68 11 3 C10.34 3 9.68 3 9 3 C9.33 2.01 9.66 1.02 10 0 C12.64 0 15.28 0 18 0 C18 4.62 18 9.24 18 14 C17.34 13.34 16.68 12.68 16 12 C13.80295489 11.32348793 13.80295489 11.32348793 11.375 10.875 C10.14910156 10.62363281 10.14910156 10.62363281 8.8984375 10.3671875 C8.27195312 10.24601563 7.64546875 10.12484375 7 10 C7.33 10.66 7.66 11.32 8 12 C7.01 13.485 7.01 13.485 6 15 C5.566875 14.54625 5.13375 14.0925 4.6875 13.625 C1.80456102 10.80388704 1.80456102 10.80388704 -2 10 C-1.34 8.35 -0.68 6.7 0 5 C-0.99 4.67 -1.98 4.34 -3 4 C-2.67 3.01 -2.34 2.02 -2 1 C-1.34 0.67 -0.68 0.34 0 0 Z M12 3 C11.67 4.98 11.34 6.96 11 9 C11.99 9.33 12.98 9.66 14 10 C14 8.02 14 6.04 14 4 C13.34 3.67 12.68 3.34 12 3 Z M5 5 C4.01 6.485 4.01 6.485 3 8 C3.99 8.495 3.99 8.495 5 9 C5.33 7.68 5.66 6.36 6 5 C5.67 5 5.34 5 5 5 Z " fill="#FDFDFD" transform="translate(602,729)"/>
<path d="M0 0 C0.66 0.33 1.32 0.66 2 1 C3.67654729 0.72057545 5.34608154 0.39171753 7 0 C7.33 1.65 7.66 3.3 8 5 C8.99 4.34 9.98 3.68 11 3 C10.34 3 9.68 3 9 3 C9.33 2.01 9.66 1.02 10 0 C12.64 0 15.28 0 18 0 C18 4.62 18 9.24 18 14 C17.34 13.34 16.68 12.68 16 12 C13.80295489 11.32348793 13.80295489 11.32348793 11.375 10.875 C10.14910156 10.62363281 10.14910156 10.62363281 8.8984375 10.3671875 C8.27195312 10.24601563 7.64546875 10.12484375 7 10 C7.33 10.66 7.66 11.32 8 12 C7.01 13.485 7.01 13.485 6 15 C5.566875 14.54625 5.13375 14.0925 4.6875 13.625 C1.80456102 10.80388704 1.80456102 10.80388704 -2 10 C-1.34 8.35 -0.68 6.7 0 5 C-0.99 4.67 -1.98 4.34 -3 4 C-2.67 3.01 -2.34 2.02 -2 1 C-1.34 0.67 -0.68 0.34 0 0 Z M12 3 C11.67 4.98 11.34 6.96 11 9 C11.99 9.33 12.98 9.66 14 10 C14 8.02 14 6.04 14 4 C13.34 3.67 12.68 3.34 12 3 Z M5 5 C4.01 6.485 4.01 6.485 3 8 C3.99 8.495 3.99 8.495 5 9 C5.33 7.68 5.66 6.36 6 5 C5.67 5 5.34 5 5 5 Z " fill="#FDFDFD" transform="translate(23,729)"/>
<path d="M0 0 C24.75 0 49.5 0 75 0 C75 0.33 75 0.66 75 1 C66.99314225 1.26306767 58.98621874 1.52399743 50.97920609 1.78230286 C47.26002891 1.90234814 43.54087728 2.02309117 39.82177734 2.14550781 C36.22323669 2.26392915 32.62463782 2.3804145 29.02599335 2.49563599 C27.00558795 2.56080772 24.9852452 2.62791228 22.96490479 2.69506836 C15.30664972 2.9383624 7.66205788 3.05613719 0 3 C0 2.01 0 1.02 0 0 Z " fill="#DBC6C6" transform="translate(875,637)"/>
<path d="M0 0 C0.66 0.33 1.32 0.66 2 1 C1.67 1.99 1.34 2.98 1 4 C0.0409375 4.4640625 0.0409375 4.4640625 -0.9375 4.9375 C-3.486349 6.25054342 -3.78245927 7.48374915 -5 10 C-5.99 10.33 -6.98 10.66 -8 11 C-8.69610008 12.31820594 -9.3596585 13.65382579 -10 15 C-11.52124023 16.65649414 -11.52124023 16.65649414 -13.30859375 18.28515625 C-13.96835205 18.89343262 -14.62811035 19.50170898 -15.30786133 20.12841797 C-16.01064209 20.76666504 -16.71342285 21.40491211 -17.4375 22.0625 C-23.41962929 27.56490168 -29.22532607 33.16963412 -34.86328125 39.0234375 C-37 41 -37 41 -40 42 C-38.56741228 38.72803548 -36.81174684 36.56796044 -34.28466797 34.05761719 C-33.52403046 33.29713074 -32.76339294 32.53664429 -31.97970581 31.75311279 C-31.15882477 30.94255432 -30.33794373 30.13199585 -29.4921875 29.296875 C-28.65156769 28.45908508 -27.81094788 27.62129517 -26.94485474 26.75811768 C-24.25955999 24.08401569 -21.56739345 21.41695276 -18.875 18.75 C-17.05292845 16.93795938 -15.23130823 15.12546482 -13.41015625 13.3125 C-8.94532748 8.86971964 -4.47483717 4.43269835 0 0 Z " fill="#F2DADA" transform="translate(979,775)"/>
<path d="M0 0 C1.65 0 3.3 0 5 0 C5 1.98 5 3.96 5 6 C4.01 6 3.02 6 2 6 C2 4.35 2 2.7 2 1 C1.34 0.67 0.68 0.34 0 0 Z " fill="#FEFEFE" transform="translate(593,729)"/>
<path d="M0 0 C1.32 0.33 2.64 0.66 4 1 C4 2.65 4 4.3 4 6 C3.01 6 2.02 6 1 6 C0.67 4.02 0.34 2.04 0 0 Z " fill="#FEFEFE" transform="translate(15,729)"/>
<path d="M0 0 C0 0.66 0 1.32 0 2 C-1.32 2.33 -2.64 2.66 -4 3 C-4.33 2.34 -4.66 1.68 -5 1 C-3 0 -3 0 0 0 Z " fill="#FEFEFE" transform="translate(606,741)"/>
<path d="M0 0 C0 0.66 0 1.32 0 2 C-1.32 2.33 -2.64 2.66 -4 3 C-4.33 2.34 -4.66 1.68 -5 1 C-3 0 -3 0 0 0 Z " fill="#FEFEFE" transform="translate(27,741)"/>
<path d="M0 0 C0.33 1.32 0.66 2.64 1 4 C-0.65 3.67 -2.3 3.34 -4 3 C-2.68 2.01 -1.36 1.02 0 0 Z " fill="#FEFEFE" transform="translate(589,729)"/>
<path d="M0 0 C1.32 0 2.64 0 4 0 C4 0.99 4 1.98 4 3 C2.68 2.34 1.36 1.68 0 1 C0 0.67 0 0.34 0 0 Z " fill="#FEFEFE" transform="translate(614,741)"/>
<path d="M0 0 C1.32 0 2.64 0 4 0 C4 0.99 4 1.98 4 3 C2.68 2.34 1.36 1.68 0 1 C0 0.67 0 0.34 0 0 Z " fill="#FEFEFE" transform="translate(35,741)"/>
<path d="M0 0 C0.33 0.99 0.66 1.98 1 3 C-0.32 3.33 -1.64 3.66 -3 4 C-2.01 2.68 -1.02 1.36 0 0 Z " fill="#FEFEFE" transform="translate(613,742)"/>
<path d="M0 0 C0.33 0.99 0.66 1.98 1 3 C-0.32 3.33 -1.64 3.66 -3 4 C-2.01 2.68 -1.02 1.36 0 0 Z " fill="#FEFEFE" transform="translate(34,742)"/>
<path d="M0 0 C0.99 0 1.98 0 3 0 C3 0.99 3 1.98 3 3 C2.34 3 1.68 3 1 3 C0.67 2.01 0.34 1.02 0 0 Z " fill="#FEFEFE" transform="translate(591,731)"/>
<path d="M0 0 C1.98 0.99 1.98 0.99 4 2 C2.68 1.67 1.36 1.34 0 1 C0 0.67 0 0.34 0 0 Z " fill="#FEFEFE" transform="translate(578,729)"/>
<path d="M0 0 C0.66 0.66 1.32 1.32 2 2 C1.01 1.67 0.02 1.34 -1 1 C-0.67 0.67 -0.34 0.34 0 0 Z " fill="#FEFEFE" transform="translate(599,740)"/>
<path d="M0 0 C0.66 0.66 1.32 1.32 2 2 C1.01 1.67 0.02 1.34 -1 1 C-0.67 0.67 -0.34 0.34 0 0 Z " fill="#FEFEFE" transform="translate(20,740)"/>
<path d="" fill="#FEFEFE" transform="translate(0,0)"/>
<path d="" fill="#FEFEFE" transform="translate(0,0)"/>
<path d="" fill="#FEFEFE" transform="translate(0,0)"/>
<path d="" fill="#FEFEFE" transform="translate(0,0)"/>
<path d="" fill="#FEFEFE" transform="translate(0,0)"/>
<path d="" fill="#FDFDFD" transform="translate(0,0)"/>
<path d="" fill="#FEFEFE" transform="translate(0,0)"/>
<path d="" fill="#FEFEFE" transform="translate(0,0)"/>
<path d="" fill="#FEFEFE" transform="translate(0,0)"/>
<path d="" fill="#FEFEFE" transform="translate(0,0)"/>
<path d="" fill="#FEFEFE" transform="translate(0,0)"/>
<path d="" fill="#FEFEFE" transform="translate(0,0)"/>
<path d="" fill="#FEFEFE" transform="translate(0,0)"/>
<path d="" fill="#FEFEFE" transform="translate(0,0)"/>
<path d="" fill="#FEFEFE" transform="translate(0,0)"/>
<path d="" fill="#FEFEFE" transform="translate(0,0)"/>
<path d="" fill="#FEFEFE" transform="translate(0,0)"/>
<path d="" fill="#FEFEFE" transform="translate(0,0)"/>
<path d="" fill="#FEFEFE" transform="translate(0,0)"/>
<path d="" fill="#FEFEFE" transform="translate(0,0)"/>
<path d="" fill="#FEFEFE" transform="translate(0,0)"/>
<path d="" fill="#FEFEFE" transform="translate(0,0)"/>
<path d="" fill="#FEFEFE" transform="translate(0,0)"/>
<path d="" fill="#FEFEFE" transform="translate(0,0)"/>
<path d="" fill="#FEFEFE" transform="translate(0,0)"/>
<path d="" fill="#FEFEFE" transform="translate(0,0)"/>
<path d="" fill="#FEFEFE" transform="translate(0,0)"/>
<path d="" fill="#FEFEFE" transform="translate(0,0)"/>
<path d="" fill="#FEFEFE" transform="translate(0,0)"/>
<path d="" fill="#FEFEFE" transform="translate(0,0)"/>
<path d="" fill="#FEFEFE" transform="translate(0,0)"/>
<path d="" fill="#FEFEFE" transform="translate(0,0)"/>
<path d="" fill="#FEFEFE" transform="translate(0,0)"/>
<path d="" fill="#FEFEFE" transform="translate(0,0)"/>
<path d="" fill="#FEFEFE" transform="translate(0,0)"/>
<path d="" fill="#FEFEFE" transform="translate(0,0)"/>
<path d="" fill="#FEFEFE" transform="translate(0,0)"/>
<path d="" fill="#FEFEFE" transform="translate(0,0)"/>
<path d="" fill="#FEFEFE" transform="translate(0,0)"/>
<path d="" fill="#FEFEFE" transform="translate(0,0)"/>
<path d="" fill="#FEFEFE" transform="translate(0,0)"/>
<path d="" fill="#FEFEFE" transform="translate(0,0)"/>
<path d="" fill="#FEFEFE" transform="translate(0,0)"/>
<path d="" fill="#FEFEFE" transform="translate(0,0)"/>
<path d="" fill="#FEFEFE" transform="translate(0,0)"/>
<path d="" fill="#FEFEFE" transform="translate(0,0)"/>
<path d="" fill="#FEFEFE" transform="translate(0,0)"/>
<path d="" fill="#FEFEFE" transform="translate(0,0)"/>
<path d="" fill="#FEFEFE" transform="translate(0,0)"/>
<path d="" fill="#FEFEFE" transform="translate(0,0)"/>
<path d="" fill="#FEFEFE" transform="translate(0,0)"/>
<path d="" fill="#FEFEFE" transform="translate(0,0)"/>
<path d="" fill="#FEFEFE" transform="translate(0,0)"/>
<path d="" fill="#FEFEFE" transform="translate(0,0)"/>
<path d="" fill="#FEFEFE" transform="translate(0,0)"/>
</svg>
